<svg width="25" height="149" viewBox="0 0 25 149" fill="none" xmlns="http://www.w3.org/2000/svg">
<path d="M15.5 29.3211C15.5 28.0392 14.3807 27 13 27C11.6193 27 10.5 28.0392 10.5 29.3211V37.6789C10.5 38.9608 11.6193 40 13 40C14.3807 40 15.5 38.9608 15.5 37.6789V29.3211Z" fill="#3A3A3A"/>
<path d="M16.5 37.43C16.5 35.5362 14.71 34 12.5 34C10.29 34 8.5 35.5362 8.5 37.43V48L16.5 42.2415V37.43Z" fill="#3ADA86"/>
<path d="M16.5 47L8.5 52.7864V70L16.5 64.2136V47Z" fill="#3ADA86"/>
<path d="M8.5 108H16.5V91L8.5 97.0671V108Z" fill="#3ADA86"/>
<path d="M8.5 74.7961V92L16.5 86.2136V69L8.5 74.7961Z" fill="#3ADA86"/>
<path d="M16.5 42L8.5 48.1849V53L16.5 46.8151V42Z" fill="white"/>
<path d="M16.5 65L8.5 71.1849V76L16.5 69.8047V65Z" fill="white"/>
<path d="M8.5 98L16.5 91.8151V87L8.5 93.1849V98Z" fill="white"/>
<path d="M0 136.5C0 143.417 5.58333 149 12.5 149C19.4167 149 25 143.417 25 136.5C25 129.583 19.4167 124 12.5 124C5.58333 124 0 129.583 0 136.5Z" fill="#FFDD67"/>
<path d="M19.375 129.958C19.375 134.083 25 134.083 25 129.958C25 126.958 22.2083 124 22.2083 124C22.2083 124 19.375 126.958 19.375 129.958Z" fill="#65B1EF"/>
<path d="M17.2913 140.25C18.4419 140.25 19.3747 139.317 19.3747 138.167C19.3747 137.016 18.4419 136.083 17.2913 136.083C16.1407 136.083 15.208 137.016 15.208 138.167C15.208 139.317 16.1407 140.25 17.2913 140.25Z" fill="#664E27"/>
<path d="M7.70833 140.25C8.85893 140.25 9.79167 139.317 9.79167 138.167C9.79167 137.016 8.85893 136.083 7.70833 136.083C6.55774 136.083 5.625 137.016 5.625 138.167C5.625 139.317 6.55774 140.25 7.70833 140.25Z" fill="#664E27"/>
<path d="M9.83324 132.292C8.49991 133.417 6.70824 133.917 4.95824 133.583C4.70824 133.542 4.49991 134.417 4.79158 134.5C6.79158 134.875 8.87491 134.292 10.4166 133C10.6249 132.792 9.99991 132.125 9.83324 132.292ZM20.0416 133.542C18.2916 133.833 16.4999 133.375 15.1666 132.25C14.9999 132.083 14.3332 132.75 14.5832 132.958C16.1249 134.292 18.2082 134.833 20.2082 134.458C20.4999 134.375 20.2916 133.5 20.0416 133.542Z" fill="#917524"/>
<path d="M15.8337 144.833H9.16699C8.54199 144.833 8.54199 143.167 9.16699 143.167H15.8337C16.4587 143.167 16.4587 144.833 15.8337 144.833Z" fill="#664E27"/>
</svg>
