<svg width="14" height="25" viewBox="0 0 14 25" fill="none" xmlns="http://www.w3.org/2000/svg">
<path d="M0 6.7815C0 3.06102 3.08853 0 7 0C10.9115 0 14 3.06102 14 6.7815V18.2185C14 21.939 10.9115 25 7 25C3.08853 25 0 21.9488 0 18.2283V6.7815ZM7 22.7461C9.81422 22.7461 11.7039 20.9154 11.7039 18.2283V6.7815C11.7039 4.08465 9.81422 2.22441 7 2.22441C4.18578 2.22441 2.32656 4.08465 2.32656 6.7815V18.2185C2.32656 20.9154 4.21626 22.7362 7 22.7362V22.7461ZM5.86212 6.25H8.1582V18.75H5.86212V6.25Z" fill="#FF5B4F"/>
</svg>
