<svg width="38" height="163" viewBox="0 0 38 163" fill="none" xmlns="http://www.w3.org/2000/svg">
<g clip-path="url(#clip0_1214_10520)">
<path d="M19.0051 10H18.9949C15.1317 10 12 13.035 12 16.7788V28.2212C12 31.965 15.1317 35 18.9949 35H19.0051C22.8683 35 26 31.965 26 28.2212V16.7788C26 13.035 22.8683 10 19.0051 10Z" fill="#FBE738"/>
<path d="M22 39.3211C22 38.0392 20.8807 37 19.5 37C18.1193 37 17 38.0392 17 39.3211V47.6789C17 48.9608 18.1193 50 19.5 50C20.8807 50 22 48.9608 22 47.6789V39.3211Z" fill="#3A3A3A"/>
<path d="M12 16.7815C12 13.061 15.0885 10 19 10C22.9115 10 26 13.061 26 16.7815V28.2185C26 31.939 22.9115 35 19 35C15.0885 35 12 31.9488 12 28.2283V16.7815ZM19 32.7461C21.8142 32.7461 23.7039 30.9154 23.7039 28.2283V16.7815C23.7039 14.0846 21.8142 12.2244 19 12.2244C16.1858 12.2244 14.3266 14.0846 14.3266 16.7815V28.2185C14.3266 30.9154 16.2163 32.7362 19 32.7362V32.7461ZM17.8621 16.25H20.1582V28.75H17.8621V16.25Z" fill="#FF5B4F"/>
<path d="M23 47.43C23 45.5362 21.21 44 19 44C16.79 44 15 45.5362 15 47.43V58L23 52.2415V47.43Z" fill="#C274FF"/>
<path d="M23 57L15 62.7864V80L23 74.2136V57Z" fill="#C274FF"/>
<path d="M15 118H23V101L15 107.067V118Z" fill="#C274FF"/>
<path d="M15 84.7961V102L23 96.2136V79L15 84.7961Z" fill="#C274FF"/>
<path d="M23 52L15 58.1849V63L23 56.8151V52Z" fill="white"/>
<path d="M23 75L15 81.1849V86L23 79.8047V75Z" fill="white"/>
<path d="M15 108L23 101.815V97L15 103.185V108Z" fill="white"/>
</g>
<path d="M31.0001 146.508C31.0001 153.42 25.4227 159 18.5133 159C11.6038 159 6.02637 153.42 6.02637 146.508C6.02637 139.595 11.6038 134.015 18.5133 134.015C25.4227 134.015 31.0001 139.595 31.0001 146.508Z" fill="#FFDD67"/>
<path d="M30.9168 138.679C30.7087 137.555 30.0843 136.639 29.0437 136.347C27.9199 136.056 26.921 136.472 25.9636 137.472C25.4225 135.972 24.5901 134.848 23.2581 134.265C21.9262 133.682 20.5943 134.099 19.7618 135.14C18.8877 136.222 18.5547 137.93 19.4704 140.137C20.3445 142.219 24.2155 146.383 24.3403 146.508C24.5068 146.424 28.8356 143.718 29.8762 142.385C30.9168 141.094 31.1249 139.803 30.9168 138.679ZM17.2644 135.14C16.432 134.099 15.1 133.682 13.7681 134.265C12.4362 134.848 11.6037 135.972 11.0626 137.472C10.0637 136.514 9.06471 136.056 7.94089 136.389C6.94194 136.68 6.27597 137.596 6.06785 138.721C5.85974 139.803 6.10948 141.136 7.10843 142.427C8.19062 143.718 12.5194 146.424 12.6859 146.508C12.8108 146.383 16.6817 142.219 17.5558 140.137C18.4715 137.93 18.1385 136.264 17.2644 135.14Z" fill="#F46767"/>
<path d="M25.5893 149.048C25.5893 148.715 25.3812 148.298 24.8401 148.173C23.3833 147.882 21.2605 147.632 18.5134 147.632C15.7663 147.632 13.6435 147.924 12.1867 148.173C11.604 148.298 11.4375 148.715 11.4375 149.048C11.4375 152.088 13.7684 155.127 18.5134 155.127C23.2584 155.086 25.5893 152.046 25.5893 149.048Z" fill="#664E27"/>
<path d="M23.7991 149.131C22.8834 148.964 20.9688 148.715 18.513 148.715C16.0573 148.715 14.1426 148.964 13.2269 149.131C12.6858 149.214 12.6442 149.422 12.6858 149.755C12.7274 149.922 12.7274 150.171 12.8107 150.421C12.8523 150.671 12.9355 150.796 13.3518 150.754C14.1426 150.671 22.9251 150.671 23.7159 150.754C24.1321 150.796 24.1737 150.671 24.257 150.421C24.2986 150.171 24.3402 149.963 24.3819 149.755C24.3819 149.422 24.3402 149.214 23.7991 149.131Z" fill="white"/>
<defs>
<clipPath id="clip0_1214_10520">
<rect width="14" height="108" fill="white" transform="translate(12 10)"/>
</clipPath>
</defs>
</svg>
