<svg width="35" height="161" viewBox="0 0 35 161" fill="none" xmlns="http://www.w3.org/2000/svg">
<g clip-path="url(#clip0_1214_10522)">
<rect x="14" y="49" width="8" height="64" fill="white"/>
<path d="M18.0051 9H17.9949C14.1317 9 11 12.035 11 15.7788V27.2212C11 30.965 14.1317 34 17.9949 34H18.0051C21.8683 34 25 30.965 25 27.2212V15.7788C25 12.035 21.8683 9 18.0051 9Z" fill="#FBE738"/>
<path d="M21 38.3211C21 37.0392 19.8807 36 18.5 36C17.1193 36 16 37.0392 16 38.3211V46.6789C16 47.9608 17.1193 49 18.5 49C19.8807 49 21 47.9608 21 46.6789V38.3211Z" fill="#3A3A3A"/>
<path d="M11 15.7815C11 12.061 14.0885 9 18 9C21.9115 9 25 12.061 25 15.7815V27.2185C25 30.939 21.9115 34 18 34C14.0885 34 11 30.9488 11 27.2283V15.7815ZM18 31.7461C20.8142 31.7461 22.7039 29.9154 22.7039 27.2283V15.7815C22.7039 13.0846 20.8142 11.2244 18 11.2244C15.1858 11.2244 13.3266 13.0846 13.3266 15.7815V27.2185C13.3266 29.9154 15.2163 31.7362 18 31.7362V31.7461ZM16.8621 15.25H19.1582V27.75H16.8621V15.25Z" fill="#FF5B4F"/>
<path d="M22 46.43C22 44.5362 20.21 43 18 43C15.79 43 14 44.5362 14 46.43V57L22 51.2415V46.43Z" fill="#FFA1B2"/>
<path d="M22 56L14 61.7864V79L22 73.2136V56Z" fill="#FFA1B2"/>
<path d="M14 117H22V100L14 106.067V117Z" fill="#FFA1B2"/>
<path d="M14 83.7961V101L22 95.2136V78L14 83.7961Z" fill="#FFA1B2"/>
<path d="M22 51L14 57.1849V62L22 55.8151V51Z" fill="white"/>
<path d="M22 74L14 80.1849V85L22 78.8047V74Z" fill="white"/>
<path d="M14 107L22 100.815V96L14 102.185V107Z" fill="white"/>
</g>
<path d="M17.5 158C24.4036 158 30 152.404 30 145.5C30 138.596 24.4036 133 17.5 133C10.5964 133 5 138.596 5 145.5C5 152.404 10.5964 158 17.5 158Z" fill="#FFDD67"/>
<path d="M12.7083 144.5C13.8589 144.5 14.7917 143.567 14.7917 142.417C14.7917 141.266 13.8589 140.333 12.7083 140.333C11.5577 140.333 10.625 141.266 10.625 142.417C10.625 143.567 11.5577 144.5 12.7083 144.5Z" fill="#664E27"/>
<path d="M22.2923 144.5C23.4429 144.5 24.3757 143.567 24.3757 142.417C24.3757 141.266 23.4429 140.333 22.2923 140.333C21.1417 140.333 20.209 141.266 20.209 142.417C20.209 143.567 21.1417 144.5 22.2923 144.5Z" fill="#664E27"/>
<path d="M24.2087 147.583C22.417 150.125 20.2504 150.75 17.5004 150.75C14.7504 150.75 12.5837 150.125 10.792 147.583C10.542 147.25 9.87537 147.458 10.042 147.958C11.0004 151.292 14.2087 153.25 17.542 153.25C20.8754 153.25 24.0837 151.292 25.042 147.958C25.1254 147.458 24.4587 147.25 24.2087 147.583Z" fill="#664E27"/>
<defs>
<clipPath id="clip0_1214_10522">
<rect width="14" height="108" fill="white" transform="translate(11 9)"/>
</clipPath>
</defs>
</svg>
