<svg width="25" height="149" viewBox="0 0 25 149" fill="none" xmlns="http://www.w3.org/2000/svg">
<path d="M15.5 29.3211C15.5 28.0392 14.3807 27 13 27C11.6193 27 10.5 28.0392 10.5 29.3211V37.6789C10.5 38.9608 11.6193 40 13 40C14.3807 40 15.5 38.9608 15.5 37.6789V29.3211Z" fill="#3A3A3A"/>
<path d="M16.5 37.43C16.5 35.5362 14.71 34 12.5 34C10.29 34 8.5 35.5362 8.5 37.43V48L16.5 42.2415V37.43Z" fill="#FF5B4F"/>
<path d="M16.5 47L8.5 52.7864V70L16.5 64.2136V47Z" fill="#FF5B4F"/>
<path d="M8.5 108H16.5V91L8.5 97.0671V108Z" fill="#FF5B4F"/>
<path d="M8.5 74.7961V92L16.5 86.2136V69L8.5 74.7961Z" fill="#FF5B4F"/>
<path d="M16.5 42L8.5 48.1849V53L16.5 46.8151V42Z" fill="white"/>
<path d="M16.5 65L8.5 71.1849V76L16.5 69.8047V65Z" fill="white"/>
<path d="M8.5 98L16.5 91.8151V87L8.5 93.1849V98Z" fill="white"/>
<path d="M12.5 149C19.4036 149 25 143.404 25 136.5C25 129.596 19.4036 124 12.5 124C5.59644 124 0 129.596 0 136.5C0 143.404 5.59644 149 12.5 149Z" fill="#FFDD67"/>
<path d="M20.7082 131.25C20.9582 131.375 20.8332 131.667 20.6249 131.708C19.4999 131.875 18.3332 132.083 17.1666 132.708C18.8332 133 20.1666 133.833 20.9166 134.708C21.0832 134.917 20.8749 135.167 20.7082 135.125C18.7082 134.417 16.6666 134 14.1249 134.292C13.9166 134.292 13.7499 134.208 13.7916 134C14.4582 130.958 18.3332 129.833 20.7082 131.25ZM4.29158 131.25C4.04158 131.375 4.16658 131.667 4.37491 131.708C5.49991 131.875 6.66658 132.083 7.83325 132.708C6.16658 133 4.83325 133.833 4.08325 134.708C3.91658 134.917 4.12491 135.167 4.29158 135.125C6.29158 134.417 8.33325 134 10.8749 134.292C11.0832 134.292 11.2499 134.208 11.2082 134C10.5416 130.958 6.66658 129.833 4.29158 131.25ZM19.8749 137.5C19.7082 137.292 19.4166 137.333 19.0832 137.333H5.91658C5.58325 137.333 5.29158 137.292 5.12491 137.5C3.49991 139.583 5.41658 145.667 12.4999 145.667C19.5832 145.667 21.4999 139.583 19.8749 137.5Z" fill="#664E27"/>
<path d="M13.2498 140.542C12.9998 140.542 12.6248 140.75 12.7915 141.375C12.8748 141.667 13.2915 142.042 13.2915 142.542C13.2915 143.542 11.7082 143.542 11.7082 142.542C11.7082 142.042 12.1248 141.708 12.2082 141.375C12.3332 140.792 11.9582 140.542 11.7498 140.542C11.0832 140.542 10.0415 141.25 10.0415 142.458C10.0415 143.792 11.1665 144.875 12.5415 144.875C13.9165 144.875 15.0415 143.792 15.0415 142.458C14.9998 141.292 13.9165 140.583 13.2498 140.542Z" fill="#4C3526"/>
<path d="M9.2915 144.292C10.2082 144.708 11.2915 144.917 12.4998 144.917C13.7082 144.917 14.7915 144.667 15.7082 144.292C14.8332 143.833 13.7498 143.583 12.4998 143.583C11.2498 143.583 10.1665 143.833 9.2915 144.292Z" fill="#FF717F"/>
<path d="M18.7498 138.167H6.29144C5.41644 138.167 5.41644 139.833 6.24977 139.833H18.7498C19.5831 139.833 19.5831 138.167 18.7498 138.167Z" fill="white"/>
</svg>
