<svg width="14" height="108" viewBox="0 0 14 108" fill="none" xmlns="http://www.w3.org/2000/svg">
<g clip-path="url(#clip0_1190_7505)">
<path d="M7.00508 0H6.99492C3.13173 0 0 3.03498 0 6.77883V18.2212C0 21.965 3.13173 25 6.99492 25H7.00508C10.8683 25 14 21.965 14 18.2212V6.77883C14 3.03498 10.8683 0 7.00508 0Z" fill="#FBE738"/>
<path d="M0 6.7815C0 3.06102 3.08853 0 7 0C10.9115 0 14 3.06102 14 6.7815V18.2185C14 21.939 10.9115 25 7 25C3.08853 25 0 21.9488 0 18.2283V6.7815ZM7 22.7461C9.81422 22.7461 11.7039 20.9154 11.7039 18.2283V6.7815C11.7039 4.08465 9.81422 2.22441 7 2.22441C4.18578 2.22441 2.32656 4.08465 2.32656 6.7815V18.2185C2.32656 20.9154 4.21626 22.7362 7 22.7362V22.7461ZM5.86212 6.25H8.1582V18.75H5.86212V6.25Z" fill="#FF5B4F"/>
<rect x="3" y="40" width="8" height="64" fill="white"/>
<path d="M10 29.3211C10 28.0392 8.88071 27 7.5 27C6.11929 27 5 28.0392 5 29.3211V37.6789C5 38.9608 6.11929 40 7.5 40C8.88071 40 10 38.9608 10 37.6789V29.3211Z" fill="#3A3A3A"/>
<path d="M11 37.43C11 35.5362 9.21 34 7 34C4.79 34 3 35.5362 3 37.43V48L11 42.2415V37.43Z" fill="#C274FF"/>
<path d="M11 47L3 52.7864V70L11 64.2136V47Z" fill="#C274FF"/>
<path d="M3 108H11V91L3 97.0671V108Z" fill="#C274FF"/>
<path d="M3 74.7961V92L11 86.2136V69L3 74.7961Z" fill="#C274FF"/>
<path d="M11 42L3 48.1849V53L11 46.8151V42Z" fill="white"/>
<path d="M11 65L3 71.1849V76L11 69.8047V65Z" fill="white"/>
<path d="M3 98L11 91.8151V87L3 93.1849V98Z" fill="white"/>
</g>
<defs>
<clipPath id="clip0_1190_7505">
<rect width="14" height="108" fill="white"/>
</clipPath>
</defs>
</svg>
