<svg width="35" height="161" viewBox="0 0 35 161" fill="none" xmlns="http://www.w3.org/2000/svg">
<rect x="14" y="48" width="8" height="64" fill="white"/>
<path d="M18.0051 8H17.9949C14.1317 8 11 11.035 11 14.7788V26.2212C11 29.965 14.1317 33 17.9949 33H18.0051C21.8683 33 25 29.965 25 26.2212V14.7788C25 11.035 21.8683 8 18.0051 8Z" fill="#FBE738"/>
<path d="M21 37.3211C21 36.0392 19.8807 35 18.5 35C17.1193 35 16 36.0392 16 37.3211V45.6789C16 46.9608 17.1193 48 18.5 48C19.8807 48 21 46.9608 21 45.6789V37.3211Z" fill="#3A3A3A"/>
<path d="M11 14.7815C11 11.061 14.0885 8 18 8C21.9115 8 25 11.061 25 14.7815V26.2185C25 29.939 21.9115 33 18 33C14.0885 33 11 29.9488 11 26.2283V14.7815ZM18 30.7461C20.8142 30.7461 22.7039 28.9154 22.7039 26.2283V14.7815C22.7039 12.0846 20.8142 10.2244 18 10.2244C15.1858 10.2244 13.3266 12.0846 13.3266 14.7815V26.2185C13.3266 28.9154 15.2163 30.7362 18 30.7362V30.7461ZM16.8621 14.25H19.1582V26.75H16.8621V14.25Z" fill="#FF5B4F"/>
<path d="M22 45.43C22 43.5362 20.21 42 18 42C15.79 42 14 43.5362 14 45.43V56L22 50.2415V45.43Z" fill="#558EF0"/>
<path d="M22 55L14 60.7864V78L22 72.2136V55Z" fill="#558EF0"/>
<path d="M14 116H22V99L14 105.067V116Z" fill="#558EF0"/>
<path d="M14 82.7961V100L22 94.2136V77L14 82.7961Z" fill="#558EF0"/>
<path d="M22 50L14 56.1849V61L22 54.8151V50Z" fill="white"/>
<path d="M22 73L14 79.1849V84L22 77.8047V73Z" fill="white"/>
<path d="M14 106L22 99.8151V95L14 101.185V106Z" fill="white"/>
<path d="M21.1251 136.792C22.3751 138.042 24.1251 138.667 25.8751 138.5C26.1251 138.458 26.2501 139.375 25.9584 139.417C23.9167 139.583 21.9167 138.875 20.5001 137.417C20.2501 137.208 20.9584 136.625 21.1251 136.792ZM9.16675 138.5C10.9167 138.667 12.6667 138.042 13.9167 136.792C14.0834 136.625 14.7917 137.208 14.5834 137.417C13.1667 138.875 11.1251 139.583 9.12508 139.417C8.75008 139.417 8.91675 138.5 9.16675 138.5Z" fill="#917524"/>
<path d="M11.4583 154.75C14.3348 154.75 16.6667 154.47 16.6667 154.125C16.6667 153.78 14.3348 153.5 11.4583 153.5C8.58185 153.5 6.25 153.78 6.25 154.125C6.25 154.47 8.58185 154.75 11.4583 154.75Z" fill="#65B1EF"/>
<path d="M22.5002 155C26.6424 155 30.0002 154.664 30.0002 154.25C30.0002 153.836 26.6424 153.5 22.5002 153.5C18.3581 153.5 15.0002 153.836 15.0002 154.25C15.0002 154.664 18.3581 155 22.5002 155Z" fill="#65B1EF"/>
<path d="M17.5 155C24.4036 155 30 149.404 30 142.5C30 135.596 24.4036 130 17.5 130C10.5964 130 5 135.596 5 142.5C5 149.404 10.5964 155 17.5 155Z" fill="#FFDD67"/>
<path d="M22.7914 148.333C22.2081 146.833 20.7914 145.833 17.4998 145.833C14.1664 145.833 12.7914 146.833 12.2081 148.333C11.9164 149.125 12.3331 150.417 12.3331 150.417C12.8748 152.042 12.7914 152.5 17.4998 152.5C22.2081 152.5 22.1248 152.042 22.6665 150.417C22.6665 150.417 23.1248 149.125 22.7914 148.333Z" fill="#664E27"/>
<path d="M21.25 147.917C21.2917 147.792 21.25 147.667 21.1667 147.583C21.1667 147.583 20.3333 146.667 17.5 146.667C14.6667 146.667 13.8333 147.583 13.8333 147.583C13.75 147.625 13.75 147.792 13.75 147.917L13.8333 148.167C13.875 148.292 13.9583 148.375 14.0417 148.375H20.9583C21.0417 148.375 21.1667 148.292 21.1667 148.167L21.25 147.917Z" fill="white"/>
<path d="M22.7083 154.375H25.5416C28.9583 150.25 24.9166 146.042 25.9166 141.958C24.9583 141.958 23.9999 143 23.0833 143C21.7499 146.958 26.1249 150.25 22.7083 154.375ZM12.2916 154.375H9.45825C6.04159 150.25 10.0833 146.042 9.08325 141.958C10.0416 141.958 10.9999 143 11.9166 143C13.2499 146.958 8.87492 150.25 12.2916 154.375Z" fill="#65B1EF"/>
<path d="M21.1251 136.792C22.3751 138.042 24.1251 138.667 25.8751 138.5C26.1251 138.458 26.2501 139.375 25.9584 139.417C23.9167 139.583 21.9167 138.875 20.5001 137.417C20.2501 137.208 20.9584 136.625 21.1251 136.792ZM9.16675 138.5C10.9167 138.667 12.6667 138.042 13.9167 136.792C14.0834 136.625 14.7917 137.208 14.5834 137.417C13.1667 138.875 11.1251 139.583 9.12508 139.417C8.75008 139.417 8.91675 138.5 9.16675 138.5Z" fill="#917524"/>
<path d="M19.1246 141.792C20.8746 145.125 24.4163 145.125 26.1663 141.792C26.2496 141.625 26.0413 141.542 25.7496 141.375C23.9996 142.75 21.1246 142.625 19.5413 141.375C19.2913 141.542 19.0413 141.625 19.1246 141.792ZM8.83297 141.792C10.583 145.125 14.1246 145.125 15.8746 141.792C15.958 141.625 15.7496 141.542 15.458 141.375C13.708 142.75 10.833 142.625 9.24964 141.375C8.95797 141.542 8.74964 141.625 8.83297 141.792Z" fill="#664E27"/>
</svg>
