<svg width="35" height="163" viewBox="0 0 35 163" fill="none" xmlns="http://www.w3.org/2000/svg">
<g clip-path="url(#clip0_1214_10521)">
<path d="M18.0051 10H17.9949C14.1317 10 11 13.035 11 16.7788V28.2212C11 31.965 14.1317 35 17.9949 35H18.0051C21.8683 35 25 31.965 25 28.2212V16.7788C25 13.035 21.8683 10 18.0051 10Z" fill="#FBE738"/>
<path d="M11 16.7815C11 13.061 14.0885 10 18 10C21.9115 10 25 13.061 25 16.7815V28.2185C25 31.939 21.9115 35 18 35C14.0885 35 11 31.9488 11 28.2283V16.7815ZM18 32.7461C20.8142 32.7461 22.7039 30.9154 22.7039 28.2283V16.7815C22.7039 14.0846 20.8142 12.2244 18 12.2244C15.1858 12.2244 13.3266 14.0846 13.3266 16.7815V28.2185C13.3266 30.9154 15.2163 32.7362 18 32.7362V32.7461ZM16.8621 16.25H19.1582V28.75H16.8621V16.25Z" fill="#FF5B4F"/>
<rect x="14" y="50" width="8" height="64" fill="white"/>
<path d="M21 39.3211C21 38.0392 19.8807 37 18.5 37C17.1193 37 16 38.0392 16 39.3211V47.6789C16 48.9608 17.1193 50 18.5 50C19.8807 50 21 48.9608 21 47.6789V39.3211Z" fill="#3A3A3A"/>
<path d="M22 47.43C22 45.5362 20.21 44 18 44C15.79 44 14 45.5362 14 47.43V58L22 52.2415V47.43Z" fill="#FF5B4F"/>
<path d="M22 57L14 62.7864V80L22 74.2136V57Z" fill="#FF5B4F"/>
<path d="M14 118H22V101L14 107.067V118Z" fill="#FF5B4F"/>
<path d="M14 84.7961V102L22 96.2136V79L14 84.7961Z" fill="#FF5B4F"/>
<path d="M22 52L14 58.1849V63L22 56.8151V52Z" fill="white"/>
<path d="M22 75L14 81.1849V86L22 79.8047V75Z" fill="white"/>
<path d="M14 108L22 101.815V97L14 103.185V108Z" fill="white"/>
</g>
<path d="M17.5 159C24.4036 159 30 153.404 30 146.5C30 139.596 24.4036 134 17.5 134C10.5964 134 5 139.596 5 146.5C5 153.404 10.5964 159 17.5 159Z" fill="#FFDD67"/>
<path d="M25.7082 141.25C25.9582 141.375 25.8332 141.667 25.6249 141.708C24.4999 141.875 23.3332 142.083 22.1666 142.708C23.8332 143 25.1666 143.833 25.9166 144.708C26.0832 144.917 25.8749 145.167 25.7082 145.125C23.7082 144.417 21.6666 144 19.1249 144.292C18.9166 144.292 18.7499 144.208 18.7916 144C19.4582 140.958 23.3332 139.833 25.7082 141.25ZM9.29158 141.25C9.04158 141.375 9.16658 141.667 9.37491 141.708C10.4999 141.875 11.6666 142.083 12.8332 142.708C11.1666 143 9.83325 143.833 9.08325 144.708C8.91658 144.917 9.12491 145.167 9.29158 145.125C11.2916 144.417 13.3332 144 15.8749 144.292C16.0832 144.292 16.2499 144.208 16.2082 144C15.5416 140.958 11.6666 139.833 9.29158 141.25ZM24.8749 147.5C24.7082 147.292 24.4166 147.333 24.0832 147.333H10.9166C10.5832 147.333 10.2916 147.292 10.1249 147.5C8.49991 149.583 10.4166 155.667 17.4999 155.667C24.5832 155.667 26.4999 149.583 24.8749 147.5Z" fill="#664E27"/>
<path d="M18.2501 150.542C18.0001 150.542 17.6251 150.75 17.7917 151.375C17.8751 151.667 18.2917 152.042 18.2917 152.542C18.2917 153.542 16.7084 153.542 16.7084 152.542C16.7084 152.042 17.1251 151.708 17.2084 151.375C17.3334 150.792 16.9584 150.542 16.7501 150.542C16.0834 150.542 15.0417 151.25 15.0417 152.458C15.0417 153.792 16.1667 154.875 17.5417 154.875C18.9167 154.875 20.0417 153.792 20.0417 152.458C20.0001 151.292 18.9167 150.583 18.2501 150.542Z" fill="#4C3526"/>
<path d="M14.2917 154.292C15.2084 154.708 16.2917 154.917 17.5001 154.917C18.7084 154.917 19.7917 154.667 20.7084 154.292C19.8334 153.833 18.7501 153.583 17.5001 153.583C16.2501 153.583 15.1667 153.833 14.2917 154.292Z" fill="#FF717F"/>
<path d="M23.75 148.167H11.2917C10.4167 148.167 10.4167 149.833 11.25 149.833H23.75C24.5833 149.833 24.5833 148.167 23.75 148.167Z" fill="white"/>
<defs>
<clipPath id="clip0_1214_10521">
<rect width="14" height="108" fill="white" transform="translate(11 10)"/>
</clipPath>
</defs>
</svg>
