<svg width="25" height="149" viewBox="0 0 25 149" fill="none" xmlns="http://www.w3.org/2000/svg">
<path d="M15.5 29.3211C15.5 28.0392 14.3807 27 13 27C11.6193 27 10.5 28.0392 10.5 29.3211V37.6789C10.5 38.9608 11.6193 40 13 40C14.3807 40 15.5 38.9608 15.5 37.6789V29.3211Z" fill="#3A3A3A"/>
<path d="M16.5 37.43C16.5 35.5362 14.71 34 12.5 34C10.29 34 8.5 35.5362 8.5 37.43V48L16.5 42.2415V37.43Z" fill="#FFA1B2"/>
<path d="M16.5 47L8.5 52.7864V70L16.5 64.2136V47Z" fill="#FFA1B2"/>
<path d="M8.5 108H16.5V91L8.5 97.0671V108Z" fill="#FFA1B2"/>
<path d="M8.5 74.7961V92L16.5 86.2136V69L8.5 74.7961Z" fill="#FFA1B2"/>
<path d="M16.5 42L8.5 48.1849V53L16.5 46.8151V42Z" fill="white"/>
<path d="M16.5 65L8.5 71.1849V76L16.5 69.8047V65Z" fill="white"/>
<path d="M8.5 98L16.5 91.8151V87L8.5 93.1849V98Z" fill="white"/>
<path d="M12.5 149C19.4036 149 25 143.404 25 136.5C25 129.596 19.4036 124 12.5 124C5.59644 124 0 129.596 0 136.5C0 143.404 5.59644 149 12.5 149Z" fill="#FFDD67"/>
<path d="M7.70833 135.5C8.85893 135.5 9.79167 134.567 9.79167 133.417C9.79167 132.266 8.85893 131.333 7.70833 131.333C6.55774 131.333 5.625 132.266 5.625 133.417C5.625 134.567 6.55774 135.5 7.70833 135.5Z" fill="#664E27"/>
<path d="M17.2923 135.5C18.4429 135.5 19.3757 134.567 19.3757 133.417C19.3757 132.266 18.4429 131.333 17.2923 131.333C16.1417 131.333 15.209 132.266 15.209 133.417C15.209 134.567 16.1417 135.5 17.2923 135.5Z" fill="#664E27"/>
<path d="M19.2087 138.583C17.417 141.125 15.2504 141.75 12.5004 141.75C9.75037 141.75 7.58371 141.125 5.79204 138.583C5.54204 138.25 4.87537 138.458 5.04204 138.958C6.00037 142.292 9.20871 144.25 12.542 144.25C15.8754 144.25 19.0837 142.292 20.042 138.958C20.1254 138.458 19.4587 138.25 19.2087 138.583Z" fill="#664E27"/>
</svg>
