<svg width="189" height="200" viewBox="0 0 189 200" fill="none" xmlns="http://www.w3.org/2000/svg">
<g filter="url(#filter0_d_1219_26897)">
<circle cx="94" cy="100" r="85" fill="#F4F4F4"/>
</g>
<path d="M165.725 5.59888C161.41 22.8507 148.296 35.9492 135.171 32.6662C148.296 35.9492 153.698 53.6794 149.382 70.9313C153.698 53.6794 166.812 40.581 179.936 43.864C166.812 40.581 161.41 22.8507 165.725 5.59888Z" fill="#FBE738"/>
<path d="M20.8807 123.686C32.7494 139.485 34.7559 160.339 22.6071 169.466C34.7559 160.339 54.2262 168.073 66.0949 183.872C54.2262 168.073 52.2197 147.219 64.3685 138.093C52.2197 147.219 32.7494 139.485 20.8807 123.686Z" fill="#3ADA86"/>
<path d="M152.162 110.319C145.853 118.758 135.491 122.915 129.017 118.074C135.491 122.915 134.437 134.029 128.128 142.468C134.437 134.029 144.799 129.873 151.273 134.713C144.799 129.873 145.853 118.758 152.162 110.319Z" fill="#FFA1B2"/>
<path d="M43.6092 53.92C48.0984 60.4486 48.5599 68.831 43.5509 72.2753C48.5599 68.831 56.2217 72.2623 60.711 78.7909C56.2217 72.2623 55.7603 63.8799 60.7692 60.4356C55.7603 63.8799 48.0984 60.4486 43.6092 53.92Z" fill="#FFA1B2"/>
<g clip-path="url(#clip0_1219_26897)">
<path d="M94.0051 46H93.9949C90.1317 46 87 49.035 87 52.7788V64.2212C87 67.965 90.1317 71 93.9949 71H94.0051C97.8683 71 101 67.965 101 64.2212V52.7788C101 49.035 97.8683 46 94.0051 46Z" fill="#F5E7A1"/>
<path d="M97 75.3211C97 74.0392 95.8807 73 94.5 73C93.1193 73 92 74.0392 92 75.3211V83.6789C92 84.9608 93.1193 86 94.5 86C95.8807 86 97 84.9608 97 83.6789V75.3211Z" fill="#3A3A3A"/>
<path d="M87 52.7815C87 49.061 90.0885 46 94 46C97.9115 46 101 49.061 101 52.7815V64.2185C101 67.939 97.9115 71 94 71C90.0885 71 87 67.9488 87 64.2283V52.7815ZM94 68.7461C96.8142 68.7461 98.7039 66.9154 98.7039 64.2283V52.7815C98.7039 50.0846 96.8142 48.2244 94 48.2244C91.1858 48.2244 89.3266 50.0846 89.3266 52.7815V64.2185C89.3266 66.9154 91.2163 68.7362 94 68.7362V68.7461ZM92.8621 52.25H95.1582V64.75H92.8621V52.25Z" fill="#FF5B4F"/>
<path d="M98 83.43C98 81.5362 96.21 80 94 80C91.79 80 90 81.5362 90 83.43V94L98 88.2415V83.43Z" fill="#C274FF"/>
<path d="M98 93L90 98.7864V116L98 110.214V93Z" fill="#C274FF"/>
<path d="M90 154H98V137L90 143.067V154Z" fill="#C274FF"/>
<path d="M90 120.796V138L98 132.214V115L90 120.796Z" fill="#C274FF"/>
<path d="M98 88L90 94.1849V99L98 92.8151V88Z" fill="white"/>
<path d="M98 111L90 117.185V122L98 115.805V111Z" fill="white"/>
<path d="M90 144L98 137.815V133L90 139.185V144Z" fill="white"/>
</g>
<defs>
<filter id="filter0_d_1219_26897" x="1" y="9" width="186" height="186" filterUnits="userSpaceOnUse" color-interpolation-filters="sRGB">
<feFlood flood-opacity="0" result="BackgroundImageFix"/>
<feColorMatrix in="SourceAlpha" type="matrix" values="0 0 0 0 0 0 0 0 0 0 0 0 0 0 0 0 0 0 127 0" result="hardAlpha"/>
<feOffset dy="2"/>
<feGaussianBlur stdDeviation="4"/>
<feComposite in2="hardAlpha" operator="out"/>
<feColorMatrix type="matrix" values="0 0 0 0 0 0 0 0 0 0 0 0 0 0 0 0 0 0 0.1 0"/>
<feBlend mode="normal" in2="BackgroundImageFix" result="effect1_dropShadow_1219_26897"/>
<feBlend mode="normal" in="SourceGraphic" in2="effect1_dropShadow_1219_26897" result="shape"/>
</filter>
<clipPath id="clip0_1219_26897">
<rect width="14" height="108" fill="white" transform="translate(87 46)"/>
</clipPath>
</defs>
</svg>
