<svg width="25" height="149" viewBox="0 0 25 149" fill="none" xmlns="http://www.w3.org/2000/svg">
<path d="M15.5 29.3211C15.5 28.0392 14.3807 27 13 27C11.6193 27 10.5 28.0392 10.5 29.3211V37.6789C10.5 38.9608 11.6193 40 13 40C14.3807 40 15.5 38.9608 15.5 37.6789V29.3211Z" fill="#3A3A3A"/>
<path d="M16.5 37.43C16.5 35.5362 14.71 34 12.5 34C10.29 34 8.5 35.5362 8.5 37.43V48L16.5 42.2415V37.43Z" fill="#558EF0"/>
<path d="M16.5 47L8.5 52.7864V70L16.5 64.2136V47Z" fill="#558EF0"/>
<path d="M8.5 108H16.5V91L8.5 97.0671V108Z" fill="#558EF0"/>
<path d="M8.5 74.7961V92L16.5 86.2136V69L8.5 74.7961Z" fill="#558EF0"/>
<path d="M16.5 42L8.5 48.1849V53L16.5 46.8151V42Z" fill="white"/>
<path d="M16.5 65L8.5 71.1849V76L16.5 69.8047V65Z" fill="white"/>
<path d="M8.5 98L16.5 91.8151V87L8.5 93.1849V98Z" fill="white"/>
<path d="M6.45833 148.75C9.33482 148.75 11.6667 148.47 11.6667 148.125C11.6667 147.78 9.33482 147.5 6.45833 147.5C3.58185 147.5 1.25 147.78 1.25 148.125C1.25 148.47 3.58185 148.75 6.45833 148.75Z" fill="#65B1EF"/>
<path d="M17.5 149C21.6421 149 25 148.664 25 148.25C25 147.836 21.6421 147.5 17.5 147.5C13.3579 147.5 10 147.836 10 148.25C10 148.664 13.3579 149 17.5 149Z" fill="#65B1EF"/>
<path d="M12.5 149C19.4036 149 25 143.404 25 136.5C25 129.596 19.4036 124 12.5 124C5.59644 124 0 129.596 0 136.5C0 143.404 5.59644 149 12.5 149Z" fill="#FFDD67"/>
<path d="M17.7914 142.333C17.2081 140.833 15.7914 139.833 12.4998 139.833C9.16645 139.833 7.79145 140.833 7.20812 142.333C6.91645 143.125 7.33312 144.417 7.33312 144.417C7.87478 146.042 7.79145 146.5 12.4998 146.5C17.2081 146.5 17.1248 146.042 17.6665 144.417C17.6665 144.417 18.1248 143.125 17.7914 142.333Z" fill="#664E27"/>
<path d="M16.25 141.917C16.2917 141.792 16.25 141.667 16.1667 141.583C16.1667 141.583 15.3333 140.667 12.5 140.667C9.66667 140.667 8.83333 141.583 8.83333 141.583C8.75 141.625 8.75 141.792 8.75 141.917L8.83333 142.167C8.875 142.292 8.95833 142.375 9.04167 142.375H15.9583C16.0417 142.375 16.1667 142.292 16.1667 142.167L16.25 141.917Z" fill="white"/>
<path d="M17.7083 148.375H20.5416C23.9583 144.25 19.9166 140.042 20.9166 135.958C19.9583 135.958 18.9999 137 18.0833 137C16.7499 140.958 21.1249 144.25 17.7083 148.375ZM7.29158 148.375H4.45825C1.04159 144.25 5.08325 140.042 4.08325 135.958C5.04159 135.958 5.99992 137 6.91658 137C8.24992 140.958 3.87492 144.25 7.29158 148.375Z" fill="#65B1EF"/>
<path d="M16.1251 130.792C17.3751 132.042 19.1251 132.667 20.8751 132.5C21.1251 132.458 21.2501 133.375 20.9584 133.417C18.9167 133.583 16.9167 132.875 15.5001 131.417C15.2501 131.208 15.9584 130.625 16.1251 130.792ZM4.16675 132.5C5.91675 132.667 7.66675 132.042 8.91675 130.792C9.08342 130.625 9.79175 131.208 9.58342 131.417C8.16675 132.875 6.12508 133.583 4.12508 133.417C3.75008 133.417 3.91675 132.5 4.16675 132.5Z" fill="#917524"/>
<path d="M14.1246 135.792C15.8746 139.125 19.4163 139.125 21.1663 135.792C21.2496 135.625 21.0413 135.542 20.7496 135.375C18.9996 136.75 16.1246 136.625 14.5413 135.375C14.2913 135.542 14.0413 135.625 14.1246 135.792ZM3.83297 135.792C5.58297 139.125 9.12464 139.125 10.8746 135.792C10.958 135.625 10.7496 135.542 10.458 135.375C8.70797 136.75 5.83297 136.625 4.24964 135.375C3.95797 135.542 3.74964 135.625 3.83297 135.792Z" fill="#664E27"/>
</svg>
