<svg width="35" height="158" viewBox="0 0 35 158" fill="none" xmlns="http://www.w3.org/2000/svg">
<g clip-path="url(#clip0_1214_10524)">
<rect x="14" y="48" width="8" height="64" fill="white"/>
<path d="M18.0051 8H17.9949C14.1317 8 11 11.035 11 14.7788V26.2212C11 29.965 14.1317 33 17.9949 33H18.0051C21.8683 33 25 29.965 25 26.2212V14.7788C25 11.035 21.8683 8 18.0051 8Z" fill="#FBE738"/>
<path d="M21 37.3211C21 36.0392 19.8807 35 18.5 35C17.1193 35 16 36.0392 16 37.3211V45.6789C16 46.9608 17.1193 48 18.5 48C19.8807 48 21 46.9608 21 45.6789V37.3211Z" fill="#3A3A3A"/>
<path d="M11 14.7815C11 11.061 14.0885 8 18 8C21.9115 8 25 11.061 25 14.7815V26.2185C25 29.939 21.9115 33 18 33C14.0885 33 11 29.9488 11 26.2283V14.7815ZM18 30.7461C20.8142 30.7461 22.7039 28.9154 22.7039 26.2283V14.7815C22.7039 12.0846 20.8142 10.2244 18 10.2244C15.1858 10.2244 13.3266 12.0846 13.3266 14.7815V26.2185C13.3266 28.9154 15.2163 30.7362 18 30.7362V30.7461ZM16.8621 14.25H19.1582V26.75H16.8621V14.25Z" fill="#FF5B4F"/>
<path d="M22 45.43C22 43.5362 20.21 42 18 42C15.79 42 14 43.5362 14 45.43V56L22 50.2415V45.43Z" fill="#3ADA86"/>
<path d="M22 55L14 60.7864V78L22 72.2136V55Z" fill="#3ADA86"/>
<path d="M14 116H22V99L14 105.067V116Z" fill="#3ADA86"/>
<path d="M14 82.7961V100L22 94.2136V77L14 82.7961Z" fill="#3ADA86"/>
<path d="M22 50L14 56.1849V61L22 54.8151V50Z" fill="white"/>
<path d="M22 73L14 79.1849V84L22 77.8047V73Z" fill="white"/>
<path d="M14 106L22 99.8151V95L14 101.185V106Z" fill="white"/>
</g>
<path d="M24.375 137.958C24.375 142.083 30 142.083 30 137.958C30 134.958 27.2083 132 27.2083 132C27.2083 132 24.375 134.958 24.375 137.958Z" fill="#65B1EF"/>
<path d="M5 144.5C5 151.417 10.5833 157 17.5 157C24.4167 157 30 151.417 30 144.5C30 137.583 24.4167 132 17.5 132C10.5833 132 5 137.583 5 144.5Z" fill="#FFDD67"/>
<path d="M24.375 137.958C24.375 142.083 30 142.083 30 137.958C30 134.958 27.2083 132 27.2083 132C27.2083 132 24.375 134.958 24.375 137.958Z" fill="#65B1EF"/>
<path d="M22.2913 148.25C23.4419 148.25 24.3747 147.317 24.3747 146.167C24.3747 145.016 23.4419 144.083 22.2913 144.083C21.1407 144.083 20.208 145.016 20.208 146.167C20.208 147.317 21.1407 148.25 22.2913 148.25Z" fill="#664E27"/>
<path d="M12.7083 148.25C13.8589 148.25 14.7917 147.317 14.7917 146.167C14.7917 145.016 13.8589 144.083 12.7083 144.083C11.5577 144.083 10.625 145.016 10.625 146.167C10.625 147.317 11.5577 148.25 12.7083 148.25Z" fill="#664E27"/>
<path d="M14.8332 140.292C13.4999 141.417 11.7082 141.917 9.95824 141.583C9.70824 141.542 9.49991 142.417 9.79158 142.5C11.7916 142.875 13.8749 142.292 15.4166 141C15.6249 140.792 14.9999 140.125 14.8332 140.292ZM25.0416 141.542C23.2916 141.833 21.4999 141.375 20.1666 140.25C19.9999 140.083 19.3332 140.75 19.5832 140.958C21.1249 142.292 23.2082 142.833 25.2082 142.458C25.4999 142.375 25.2916 141.5 25.0416 141.542Z" fill="#917524"/>
<path d="M20.8337 152.833H14.167C13.542 152.833 13.542 151.167 14.167 151.167H20.8337C21.4587 151.167 21.4587 152.833 20.8337 152.833Z" fill="#664E27"/>
<defs>
<clipPath id="clip0_1214_10524">
<rect width="14" height="108" fill="white" transform="translate(11 8)"/>
</clipPath>
</defs>
</svg>
