<svg width="25" height="149" viewBox="0 0 25 149" fill="none" xmlns="http://www.w3.org/2000/svg">
<path d="M15.5 29.3211C15.5 28.0392 14.3807 27 13 27C11.6193 27 10.5 28.0392 10.5 29.3211V37.6789C10.5 38.9608 11.6193 40 13 40C14.3807 40 15.5 38.9608 15.5 37.6789V29.3211Z" fill="#3A3A3A"/>
<path d="M16.5 37.43C16.5 35.5362 14.71 34 12.5 34C10.29 34 8.5 35.5362 8.5 37.43V48L16.5 42.2415V37.43Z" fill="#C274FF"/>
<path d="M16.5 47L8.5 52.7864V70L16.5 64.2136V47Z" fill="#C274FF"/>
<path d="M8.5 108H16.5V91L8.5 97.0671V108Z" fill="#C274FF"/>
<path d="M8.5 74.7961V92L16.5 86.2136V69L8.5 74.7961Z" fill="#C274FF"/>
<path d="M16.5 42L8.5 48.1849V53L16.5 46.8151V42Z" fill="white"/>
<path d="M16.5 65L8.5 71.1849V76L16.5 69.8047V65Z" fill="white"/>
<path d="M8.5 98L16.5 91.8151V87L8.5 93.1849V98Z" fill="white"/>
<path d="M25.0001 136.508C25.0001 143.42 19.4227 149 12.5133 149C5.60384 149 0.0263672 143.42 0.0263672 136.508C0.0263672 129.595 5.60384 124.015 12.5133 124.015C19.4227 124.015 25.0001 129.595 25.0001 136.508Z" fill="#FFDD67"/>
<path d="M24.9168 128.679C24.7087 127.555 24.0843 126.639 23.0437 126.347C21.9199 126.056 20.921 126.472 19.9636 127.472C19.4225 125.972 18.5901 124.848 17.2581 124.265C15.9262 123.682 14.5943 124.099 13.7618 125.14C12.8877 126.222 12.5547 127.93 13.4704 130.137C14.3445 132.219 18.2155 136.383 18.3403 136.508C18.5068 136.424 22.8356 133.718 23.8762 132.385C24.9168 131.094 25.1249 129.803 24.9168 128.679ZM11.2644 125.14C10.432 124.099 9.10004 123.682 7.7681 124.265C6.43617 124.848 5.60371 125.972 5.06261 127.472C4.06366 126.514 3.06471 126.056 1.94089 126.389C0.941935 126.68 0.275968 127.596 0.0678529 128.721C-0.140262 129.803 0.109476 131.136 1.10843 132.427C2.19062 133.718 6.51941 136.424 6.68591 136.508C6.81077 136.383 10.6817 132.219 11.5558 130.137C12.4715 127.93 12.1385 126.264 11.2644 125.14Z" fill="#F46767"/>
<path d="M19.5893 139.048C19.5893 138.715 19.3812 138.298 18.8401 138.173C17.3833 137.882 15.2605 137.632 12.5134 137.632C9.76629 137.632 7.64352 137.924 6.18671 138.173C5.60399 138.298 5.4375 138.715 5.4375 139.048C5.4375 142.088 7.76839 145.127 12.5134 145.127C17.2584 145.086 19.5893 142.046 19.5893 139.048Z" fill="#664E27"/>
<path d="M17.7991 139.131C16.8834 138.964 14.9688 138.715 12.513 138.715C10.0573 138.715 8.14261 138.964 7.2269 139.131C6.6858 139.214 6.64418 139.422 6.6858 139.755C6.72742 139.922 6.72742 140.171 6.81067 140.421C6.85229 140.671 6.93554 140.796 7.35177 140.754C8.14261 140.671 16.9251 140.671 17.7159 140.754C18.1321 140.796 18.1737 140.671 18.257 140.421C18.2986 140.171 18.3402 139.963 18.3819 139.755C18.3819 139.422 18.3402 139.214 17.7991 139.131Z" fill="white"/>
</svg>
