<svg width="25" height="25" viewBox="0 0 25 25" fill="none" xmlns="http://www.w3.org/2000/svg">
<path d="M0 12.5C0 19.4167 5.58333 25 12.5 25C19.4167 25 25 19.4167 25 12.5C25 5.58333 19.4167 0 12.5 0C5.58333 0 0 5.58333 0 12.5Z" fill="#FFDD67"/>
<path d="M19.375 5.95833C19.375 10.0833 25 10.0833 25 5.95833C25 2.95833 22.2083 0 22.2083 0C22.2083 0 19.375 2.95833 19.375 5.95833Z" fill="#65B1EF"/>
<path d="M17.2913 16.2502C18.4419 16.2502 19.3747 15.3174 19.3747 14.1668C19.3747 13.0162 18.4419 12.0835 17.2913 12.0835C16.1407 12.0835 15.208 13.0162 15.208 14.1668C15.208 15.3174 16.1407 16.2502 17.2913 16.2502Z" fill="#664E27"/>
<path d="M7.70833 16.2502C8.85893 16.2502 9.79167 15.3174 9.79167 14.1668C9.79167 13.0162 8.85893 12.0835 7.70833 12.0835C6.55774 12.0835 5.625 13.0162 5.625 14.1668C5.625 15.3174 6.55774 16.2502 7.70833 16.2502Z" fill="#664E27"/>
<path d="M9.83324 8.29177C8.49991 9.41677 6.70824 9.91677 4.95824 9.58344C4.70824 9.54177 4.49991 10.4168 4.79158 10.5001C6.79158 10.8751 8.87491 10.2918 10.4166 9.0001C10.6249 8.79177 9.99991 8.1251 9.83324 8.29177ZM20.0416 9.54177C18.2916 9.83344 16.4999 9.3751 15.1666 8.2501C14.9999 8.08344 14.3332 8.7501 14.5832 8.95844C16.1249 10.2918 18.2082 10.8334 20.2082 10.4584C20.4999 10.3751 20.2916 9.5001 20.0416 9.54177Z" fill="#917524"/>
<path d="M15.8337 20.8332H9.16699C8.54199 20.8332 8.54199 19.1665 9.16699 19.1665H15.8337C16.4587 19.1665 16.4587 20.8332 15.8337 20.8332Z" fill="#664E27"/>
</svg>
