<svg width="48" height="48" viewBox="0 0 48 48" fill="none" xmlns="http://www.w3.org/2000/svg">
<path d="M48.0004 24.0136C48.0004 37.2854 37.2917 47.9988 24.0256 47.9988C10.7595 47.9988 0.0507812 37.2854 0.0507812 24.0136C0.0507812 10.7417 10.7595 0.0283203 24.0256 0.0283203C37.2917 0.0283203 48.0004 10.7417 48.0004 24.0136Z" fill="#FFDD67"/>
<path d="M47.8402 8.98399C47.4406 6.82532 46.2419 5.0664 44.244 4.50674C42.0862 3.94709 40.1682 4.74659 38.3302 6.66541C37.2913 3.78719 35.6929 1.62851 33.1356 0.509201C30.5783 -0.610111 28.021 0.189398 26.4227 2.18817C24.7444 4.26689 24.1051 7.54487 25.8633 11.7823C27.5415 15.7798 34.9737 23.7749 35.2134 24.0147C35.5331 23.8548 43.8444 18.658 45.8423 16.0996C47.8402 13.6211 48.2398 11.1427 47.8402 8.98399ZM21.6277 2.18817C20.0294 0.189398 17.4721 -0.610111 14.9148 0.509201C12.3574 1.62851 10.7591 3.78719 9.72021 6.66541C7.80222 4.82655 5.88424 3.94709 3.7265 4.58669C1.80852 5.14635 0.529858 6.90527 0.130278 9.06394C-0.269303 11.1427 0.210194 13.7011 2.12818 16.1796C4.206 18.658 12.5173 23.8548 12.8369 24.0147C13.0767 23.7749 20.5089 15.7798 22.1871 11.7823C23.9453 7.54487 23.3059 4.34684 21.6277 2.18817Z" fill="#FF5B4F"/>
<path d="M37.6115 28.8931C37.6115 28.2535 37.212 27.454 36.173 27.2142C33.376 26.6545 29.3003 26.1748 24.0258 26.1748C18.7513 26.1748 14.6756 26.7345 11.8786 27.2142C10.7597 27.454 10.4401 28.2535 10.4401 28.8931C10.4401 34.7295 14.9154 40.566 24.0258 40.566C33.1362 40.486 37.6115 34.6496 37.6115 28.8931Z" fill="#664E27"/>
<path d="M34.1744 29.0521C32.4163 28.7324 28.7401 28.2529 24.0251 28.2529C19.31 28.2529 15.6339 28.7324 13.8757 29.0521C12.8368 29.2119 12.7569 29.6115 12.8368 30.2508C12.9167 30.5705 12.9167 31.05 13.0766 31.5295C13.1565 32.009 13.3163 32.2487 14.1155 32.1688C15.6339 32.009 32.4962 32.009 34.0146 32.1688C34.8138 32.2487 34.8937 32.009 35.0535 31.5295C35.1334 31.05 35.2133 30.6504 35.2933 30.2508C35.2933 29.6115 35.2133 29.2119 34.1744 29.0521Z" fill="white"/>
</svg>
