<svg width="25" height="25" viewBox="0 0 25 25" fill="none" xmlns="http://www.w3.org/2000/svg">
<path d="M6.45833 24.75C9.33482 24.75 11.6667 24.4702 11.6667 24.125C11.6667 23.7798 9.33482 23.5 6.45833 23.5C3.58185 23.5 1.25 23.7798 1.25 24.125C1.25 24.4702 3.58185 24.75 6.45833 24.75Z" fill="#65B1EF"/>
<path d="M17.5002 25C21.6424 25 25.0002 24.6642 25.0002 24.25C25.0002 23.8358 21.6424 23.5 17.5002 23.5C13.3581 23.5 10.0002 23.8358 10.0002 24.25C10.0002 24.6642 13.3581 25 17.5002 25Z" fill="#65B1EF"/>
<path d="M12.5 25C19.4036 25 25 19.4036 25 12.5C25 5.59644 19.4036 0 12.5 0C5.59644 0 0 5.59644 0 12.5C0 19.4036 5.59644 25 12.5 25Z" fill="#FFDD67"/>
<path d="M17.7914 18.3335C17.2081 16.8335 15.7914 15.8335 12.4998 15.8335C9.16645 15.8335 7.79145 16.8335 7.20812 18.3335C6.91645 19.1252 7.33312 20.4168 7.33312 20.4168C7.87478 22.0418 7.79145 22.5002 12.4998 22.5002C17.2081 22.5002 17.1248 22.0418 17.6665 20.4168C17.6665 20.4168 18.1248 19.1252 17.7914 18.3335Z" fill="#664E27"/>
<path d="M16.25 17.9165C16.2917 17.7915 16.25 17.6665 16.1667 17.5832C16.1667 17.5832 15.3333 16.6665 12.5 16.6665C9.66667 16.6665 8.83333 17.5832 8.83333 17.5832C8.75 17.6248 8.75 17.7915 8.75 17.9165L8.83333 18.1665C8.875 18.2915 8.95833 18.3748 9.04167 18.3748H15.9583C16.0417 18.3748 16.1667 18.2915 16.1667 18.1665L16.25 17.9165Z" fill="white"/>
<path d="M17.7083 24.3752H20.5416C23.9583 20.2502 19.9166 16.0418 20.9166 11.9585C19.9583 11.9585 18.9999 13.0002 18.0833 13.0002C16.7499 16.9585 21.1249 20.2502 17.7083 24.3752ZM7.29158 24.3752H4.45825C1.04159 20.2502 5.08325 16.0418 4.08325 11.9585C5.04159 11.9585 5.99992 13.0002 6.91658 13.0002C8.24992 16.9585 3.87492 20.2502 7.29158 24.3752Z" fill="#65B1EF"/>
<path d="M16.1251 6.79176C17.3751 8.04176 19.1251 8.66676 20.8751 8.50009C21.1251 8.45843 21.2501 9.37509 20.9584 9.41676C18.9167 9.58343 16.9167 8.87509 15.5001 7.41676C15.2501 7.20843 15.9584 6.62509 16.1251 6.79176ZM4.16675 8.50009C5.91675 8.66676 7.66675 8.04176 8.91675 6.79176C9.08342 6.62509 9.79175 7.20843 9.58342 7.41676C8.16675 8.87509 6.12508 9.58343 4.12508 9.41676C3.75008 9.41676 3.91675 8.50009 4.16675 8.50009Z" fill="#917524"/>
<path d="M14.1246 11.7917C15.8746 15.125 19.4163 15.125 21.1663 11.7917C21.2496 11.625 21.0413 11.5417 20.7496 11.375C18.9996 12.75 16.1246 12.625 14.5413 11.375C14.2913 11.5417 14.0413 11.625 14.1246 11.7917ZM3.83297 11.7917C5.58297 15.125 9.12464 15.125 10.8746 11.7917C10.958 11.625 10.7496 11.5417 10.458 11.375C8.70797 12.75 5.83297 12.625 4.24964 11.375C3.95797 11.5417 3.74964 11.625 3.83297 11.7917Z" fill="#664E27"/>
</svg>
