<svg width="25" height="25" viewBox="0 0 25 25" fill="none" xmlns="http://www.w3.org/2000/svg">
<path d="M25.0001 12.5075C25.0001 19.4199 19.4227 24.9998 12.5133 24.9998C5.60384 24.9998 0.0263672 19.4199 0.0263672 12.5075C0.0263672 5.59504 5.60384 0.0151367 12.5133 0.0151367C19.4227 0.0151367 25.0001 5.59504 25.0001 12.5075Z" fill="#FFDD67"/>
<path d="M24.9168 4.67916C24.7087 3.55485 24.0843 2.63875 23.0437 2.34726C21.9199 2.05577 20.921 2.47218 19.9636 3.47157C19.4225 1.97249 18.5901 0.848184 17.2581 0.265209C15.9262 -0.317766 14.5943 0.0986446 13.7618 1.13967C12.8877 2.22234 12.5547 3.92962 13.4704 6.1366C14.3445 8.21865 18.2155 12.3828 18.3403 12.5077C18.5068 12.4244 22.8356 9.71773 23.8762 8.38521C24.9168 7.09434 25.1249 5.80347 24.9168 4.67916ZM11.2644 1.13967C10.432 0.0986446 9.10004 -0.317766 7.7681 0.265209C6.43617 0.848184 5.60371 1.97249 5.06261 3.47157C4.06366 2.51383 3.06471 2.05577 1.94089 2.3889C0.941935 2.68039 0.275968 3.59649 0.0678529 4.7208C-0.140262 5.80347 0.109476 7.13598 1.10843 8.42686C2.19062 9.71773 6.51941 12.4244 6.68591 12.5077C6.81077 12.3828 10.6817 8.21865 11.5558 6.1366C12.4715 3.92962 12.1385 2.26398 11.2644 1.13967Z" fill="#F46767"/>
<path d="M19.5893 15.0476C19.5893 14.7145 19.3812 14.2981 18.8401 14.1732C17.3833 13.8817 15.2605 13.6318 12.5134 13.6318C9.76629 13.6318 7.64352 13.9233 6.18671 14.1732C5.60399 14.2981 5.4375 14.7145 5.4375 15.0476C5.4375 18.0874 7.76839 21.1272 12.5134 21.1272C17.2584 21.0856 19.5893 18.0458 19.5893 15.0476Z" fill="#664E27"/>
<path d="M17.7991 15.1311C16.8834 14.9646 14.9688 14.7148 12.513 14.7148C10.0573 14.7148 8.14261 14.9646 7.2269 15.1311C6.6858 15.2143 6.64418 15.4224 6.6858 15.7554C6.72742 15.9219 6.72742 16.1716 6.81067 16.4214C6.85229 16.6711 6.93554 16.796 7.35177 16.7544C8.14261 16.6711 16.9251 16.6711 17.7159 16.7544C18.1321 16.796 18.1737 16.6711 18.257 16.4214C18.2986 16.1716 18.3402 15.9635 18.3819 15.7554C18.3819 15.4224 18.3402 15.2143 17.7991 15.1311Z" fill="white"/>
</svg>
