<svg width="25" height="25" viewBox="0 0 25 25" fill="none" xmlns="http://www.w3.org/2000/svg">
<path d="M12.5 25C19.4036 25 25 19.4036 25 12.5C25 5.59644 19.4036 0 12.5 0C5.59644 0 0 5.59644 0 12.5C0 19.4036 5.59644 25 12.5 25Z" fill="#FFDD67"/>
<path d="M7.70833 11.5002C8.85893 11.5002 9.79167 10.5674 9.79167 9.41683C9.79167 8.26624 8.85893 7.3335 7.70833 7.3335C6.55774 7.3335 5.625 8.26624 5.625 9.41683C5.625 10.5674 6.55774 11.5002 7.70833 11.5002Z" fill="#664E27"/>
<path d="M17.2923 11.5002C18.4429 11.5002 19.3757 10.5674 19.3757 9.41683C19.3757 8.26624 18.4429 7.3335 17.2923 7.3335C16.1417 7.3335 15.209 8.26624 15.209 9.41683C15.209 10.5674 16.1417 11.5002 17.2923 11.5002Z" fill="#664E27"/>
<path d="M19.2087 14.5834C17.417 17.1251 15.2504 17.7501 12.5004 17.7501C9.75037 17.7501 7.58371 17.1251 5.79204 14.5834C5.54204 14.2501 4.87537 14.4584 5.04204 14.9584C6.00037 18.2918 9.20871 20.2501 12.542 20.2501C15.8754 20.2501 19.0837 18.2918 20.042 14.9584C20.1254 14.4584 19.4587 14.2501 19.2087 14.5834Z" fill="#664E27"/>
</svg>
