<svg width="25" height="25" viewBox="0 0 25 25" fill="none" xmlns="http://www.w3.org/2000/svg">
<path d="M12.5 25C19.4036 25 25 19.4036 25 12.5C25 5.59644 19.4036 0 12.5 0C5.59644 0 0 5.59644 0 12.5C0 19.4036 5.59644 25 12.5 25Z" fill="#FFDD67"/>
<path d="M20.7082 7.25004C20.9582 7.37504 20.8332 7.66671 20.6249 7.70838C19.4999 7.87504 18.3332 8.08338 17.1666 8.70838C18.8332 9.00004 20.1666 9.83338 20.9166 10.7084C21.0832 10.9167 20.8749 11.1667 20.7082 11.125C18.7082 10.4167 16.6666 10 14.1249 10.2917C13.9166 10.2917 13.7499 10.2084 13.7916 10C14.4582 6.95838 18.3332 5.83338 20.7082 7.25004ZM4.29158 7.25004C4.04158 7.37504 4.16658 7.66671 4.37491 7.70838C5.49991 7.87504 6.66658 8.08338 7.83325 8.70838C6.16658 9.00004 4.83325 9.83338 4.08325 10.7084C3.91658 10.9167 4.12491 11.1667 4.29158 11.125C6.29158 10.4167 8.33325 10 10.8749 10.2917C11.0832 10.2917 11.2499 10.2084 11.2082 10C10.5416 6.95838 6.66658 5.83338 4.29158 7.25004ZM19.8749 13.5C19.7082 13.2917 19.4166 13.3334 19.0832 13.3334H5.91658C5.58325 13.3334 5.29158 13.2917 5.12491 13.5C3.49991 15.5834 5.41658 21.6667 12.4999 21.6667C19.5832 21.6667 21.4999 15.5834 19.8749 13.5Z" fill="#664E27"/>
<path d="M13.2501 16.5415C13.0001 16.5415 12.6251 16.7498 12.7917 17.3748C12.8751 17.6665 13.2917 18.0415 13.2917 18.5415C13.2917 19.5415 11.7084 19.5415 11.7084 18.5415C11.7084 18.0415 12.1251 17.7082 12.2084 17.3748C12.3334 16.7915 11.9584 16.5415 11.7501 16.5415C11.0834 16.5415 10.0417 17.2498 10.0417 18.4582C10.0417 19.7915 11.1667 20.8748 12.5417 20.8748C13.9167 20.8748 15.0417 19.7915 15.0417 18.4582C15.0001 17.2915 13.9167 16.5832 13.2501 16.5415Z" fill="#4C3526"/>
<path d="M9.29175 20.2918C10.2084 20.7085 11.2917 20.9168 12.5001 20.9168C13.7084 20.9168 14.7917 20.6668 15.7084 20.2918C14.8334 19.8335 13.7501 19.5835 12.5001 19.5835C11.2501 19.5835 10.1667 19.8335 9.29175 20.2918Z" fill="#FF717F"/>
<path d="M18.75 14.1665H6.29168C5.41668 14.1665 5.41668 15.8332 6.25001 15.8332H18.75C19.5833 15.8332 19.5833 14.1665 18.75 14.1665Z" fill="white"/>
</svg>
