<svg width="179" height="107" viewBox="0 0 179 107" fill="none" xmlns="http://www.w3.org/2000/svg">
<path d="M167.352 87.3585V91.4591H149.894V87.3585H167.352ZM144.55 95.0627V86.1158C144.55 79.8406 149.583 74.7458 155.92 74.7458C162.258 74.7458 167.352 79.8406 167.352 86.1158H163.252C163.252 81.8288 160.332 78.8465 155.92 78.8465C151.571 78.8465 148.651 81.8288 148.651 86.1158V95.0627C148.651 99.474 151.571 102.456 155.92 102.456C160.332 102.456 163.252 99.474 163.252 95.0627H167.352C167.352 101.4 162.258 106.557 155.92 106.557C149.583 106.557 144.55 101.4 144.55 95.0627Z" fill="#FF5B4F"/>
<path d="M126.905 74.4972H122.804V60.8284H126.905V74.4972ZM111.869 79.8405V75.7398H137.84V79.8405H111.869ZM122.804 105.563V81.0831H126.905V105.563H122.804Z" fill="#FF5B4F"/>
<path d="M96.0257 100.22H91.9251V75.7401H96.0257V100.22ZM81.3628 105.563V101.462H106.215V105.563H81.3628ZM81.3628 79.8407V75.7401H90.6824V79.8407H81.3628ZM90.9931 67.9115V60.4558H96.5849V67.9115H90.9931Z" fill="#FF5B4F"/>
<path d="M67.1345 78.8465C63.6552 78.8465 61.4185 81.0832 61.4185 84.5626H57.3178C57.3178 79.1572 61.667 74.7458 67.1345 74.7458C72.5399 74.7458 76.9512 79.1572 76.9512 84.5626H72.8506C72.8506 81.0832 70.5517 78.8465 67.1345 78.8465ZM52.5337 105.563V75.7399H56.6343V105.563H52.5337Z" fill="#FF5B4F"/>
<path d="M19.666 60.8284H23.8909V105.563H19.666V60.8284ZM24.4501 105.563L27.0596 83.1956H31.3467L28.7372 105.563H24.4501ZM31.9059 83.1956H36.1929L38.8645 105.563H34.5775L31.9059 83.1956ZM39.4858 105.563V60.8284H43.6486V105.563H39.4858Z" fill="#FF5B4F"/>
<path d="M179 27.524V31.6247H161.541V27.524H179ZM156.198 35.2283V26.2814C156.198 20.0061 161.23 14.9114 167.568 14.9114C173.905 14.9114 179 20.0061 179 26.2814H174.899C174.899 21.9943 171.979 19.012 167.568 19.012C163.219 19.012 160.298 21.9943 160.298 26.2814V35.2283C160.298 39.6396 163.219 42.6219 167.568 42.6219C171.979 42.6219 174.899 39.6396 174.899 35.2283H179C179 41.5656 173.905 46.7225 167.568 46.7225C161.23 46.7225 156.198 41.5656 156.198 35.2283Z" fill="#FF5B4F"/>
<path d="M138.739 40.3853H134.638V0.994141H138.739V40.3853ZM124.076 45.7286V41.6279H148.928V45.7286H124.076ZM124.076 5.09479V0.994141H133.395V5.09479H124.076Z" fill="#FF5B4F"/>
<path d="M102.081 42.622C105.312 42.622 107.363 40.5717 107.363 37.3409H111.463C111.463 42.5599 107.238 46.7227 102.081 46.7227C96.9245 46.7227 92.7617 42.5599 92.7617 37.3409V24.2933C92.7617 19.1986 96.9245 14.9115 102.081 14.9115C107.3 14.9115 111.463 19.1986 111.463 24.2933H107.363C107.363 21.1246 105.312 19.0122 102.081 19.0122C98.9127 19.0122 96.8624 21.1246 96.8624 24.2933V37.3409C96.8624 40.5717 98.9127 42.622 102.081 42.622ZM112.147 45.7286V0.994141H116.247V45.7286H112.147Z" fill="#FF5B4F"/>
<path d="M77.4779 19.012C74.2471 19.012 72.1346 21.0624 72.1346 24.231H68.034C68.034 19.0742 72.321 14.9114 77.4779 14.9114C82.5727 14.9114 86.7355 19.0742 86.7355 24.231V45.7284H82.6348V24.231C82.6348 21.0624 80.5845 19.012 77.4779 19.012ZM63.312 45.7284V15.9055H67.4127V45.7284H63.312Z" fill="#FF5B4F"/>
<path d="M40.1991 42.6219C43.3678 42.6219 45.4802 40.5715 45.4802 37.3407H49.5809C49.5809 42.4976 45.356 46.7225 40.1991 46.7225C35.1043 46.7225 30.8794 42.4976 30.8794 37.3407V24.2932C30.8794 19.1363 35.1043 14.9114 40.1991 14.9114C45.356 14.9114 49.5809 19.1363 49.5809 24.2932H45.4802C45.4802 21.1245 43.3678 19.012 40.1991 19.012C37.0304 19.012 34.98 21.1245 34.98 24.2932V37.3407C34.98 40.5715 37.0304 42.6219 40.1991 42.6219ZM50.2022 45.7284V15.9055H54.3028V45.7284H50.2022Z" fill="#FF5B4F"/>
<path d="M12.302 4.16279C7.45574 4.16279 4.16279 7.51787 4.16279 12.2398V34.4828C4.16279 39.0805 7.45574 42.4977 12.302 42.4977C17.0239 42.4977 20.3169 39.0805 20.3169 34.4828H24.5418C24.5418 41.0687 19.0743 46.7226 12.302 46.7226C5.34328 46.7226 0 41.0687 0 34.4828V12.2398C0 5.52967 5.40541 0 12.302 0C19.0121 0 24.5418 5.52967 24.5418 12.2398H20.3169C20.3169 7.51787 17.0239 4.16279 12.302 4.16279Z" fill="#FF5B4F"/>
</svg>
