<svg width="164" height="124" viewBox="0 0 164 124" fill="none" xmlns="http://www.w3.org/2000/svg">
<g clip-path="url(#clip0_1515_4529)">
<path d="M25.8064 37.0921H21.3667C21.3667 41.9231 17.9055 45.5189 12.9399 45.5189C7.97429 45.5189 4.37852 41.9231 4.37852 37.0921V13.6951C4.37852 8.72952 7.83976 5.20714 12.9399 5.20714C18.04 5.20714 21.3667 8.72952 21.3667 13.6951H25.8064C25.8064 6.63811 19.9969 0.828613 12.9399 0.828613C5.88288 0.828613 0 6.63811 0 13.6951V37.0798C0 44.0023 5.6138 49.9463 12.9399 49.9463C20.266 49.9463 25.8064 44.0023 25.8064 37.0798V37.0921Z" fill="white"/>
<path d="M57.1045 17.5601H52.7871V48.9191H57.1045V17.5601Z" fill="white"/>
<path d="M42.2688 20.8254C45.5955 20.8254 47.8215 23.0514 47.8215 26.3781H52.1388C52.1388 20.96 47.6992 16.5081 42.2688 16.5081C36.8385 16.5081 32.4722 20.9477 32.4722 26.3781V40.1007C32.4722 45.5188 36.9118 49.9707 42.2688 49.9707C47.6258 49.9707 52.1388 45.5311 52.1388 40.1007H47.8215C47.8215 43.5008 45.5955 45.6534 42.2688 45.6534C38.9421 45.6534 36.7773 43.5008 36.7773 40.1007V26.3781C36.7773 23.0514 38.9299 20.8254 42.2688 20.8254Z" fill="white"/>
<path d="M78.0064 16.5081C72.5883 16.5081 68.0752 20.8866 68.0752 26.3047H72.3926C72.3926 22.978 74.6185 20.8132 78.0064 20.8132C81.3942 20.8132 83.4245 22.9658 83.4245 26.3047V48.9067H87.7419V26.3047C87.7419 20.8866 83.3633 16.5081 78.0064 16.5081Z" fill="white"/>
<path d="M67.4267 17.5601H63.1094V48.9191H67.4267V17.5601Z" fill="white"/>
<path d="M113.732 40.1007H109.414C109.414 43.5008 107.262 45.6534 103.862 45.6534C100.461 45.6534 98.3701 43.5008 98.3701 40.1007V26.3781C98.3701 23.0514 100.523 20.8254 103.862 20.8254C107.201 20.8254 109.414 23.0514 109.414 26.3781H113.732C113.732 21.0211 109.353 16.5081 103.862 16.5081C98.3701 16.5081 94.0649 21.0211 94.0649 26.3781V40.1007C94.0649 45.5922 98.4435 49.9707 103.862 49.9707C109.28 49.9707 113.732 45.5922 113.732 40.1007Z" fill="white"/>
<path d="M118.77 1.86816H114.453V48.9067H118.77V1.86816Z" fill="white"/>
<path d="M132.016 1.86816H127.699V48.9067H132.016V1.86816Z" fill="white"/>
<path d="M151.927 45.6534C147.353 45.6534 144.283 42.5224 144.283 37.8748V28.4695C144.283 23.9564 147.353 20.8254 151.927 20.8254C156.501 20.8254 159.632 23.9564 159.632 28.4695H163.95C163.95 21.865 158.593 16.5081 151.927 16.5081C145.262 16.5081 139.966 21.865 139.966 28.4695V37.8748C139.966 44.5404 145.262 49.9585 151.927 49.9585C158.593 49.9585 163.95 44.5404 163.95 37.8748H159.632C159.632 42.5101 156.563 45.6534 151.927 45.6534Z" fill="white"/>
<path d="M163.95 29.7783H145.592V34.0957H163.95V29.7783Z" fill="white"/>
<path d="M15.5634 69.178L11.0381 69.2514L11.6985 73.4953L17.7771 116.376L22.3024 116.302L21.6542 112.095L15.5634 69.178Z" fill="white"/>
<path d="M31.4629 92.7827L34.2759 116.302H38.7767L35.9759 92.7827H31.4629Z" fill="white"/>
<path d="M23.624 116.302H28.1371L30.8767 92.7827H26.3637L23.624 116.302Z" fill="white"/>
<path d="M60.9385 84.9431H56.6211V116.302H60.9385V84.9431Z" fill="white"/>
<path d="M71.971 83.8911C66.2226 83.8911 61.6484 88.5265 61.6484 94.2137H65.9658C65.9658 90.5567 68.3141 88.1962 71.9832 88.1962C75.6524 88.1962 77.9884 90.5445 77.9884 94.2137H82.3058C82.3058 88.5265 77.6704 83.8911 71.9832 83.8911H71.971Z" fill="white"/>
<path d="M93.4287 84.9431H89.1113V116.302H93.4287V84.9431Z" fill="white"/>
<path d="M93.4287 69.2512H89.1113V77.091H93.4287V69.2512Z" fill="white"/>
<path d="M115.493 69.2512H111.176V83.6221H115.493V69.2512Z" fill="white"/>
<path d="M126.989 84.9431H99.6787V89.2605H126.989V84.9431Z" fill="white"/>
<path d="M115.493 90.5569H111.176V116.302H115.493V90.5569Z" fill="white"/>
<path d="M142.535 83.8911C135.869 83.8911 130.573 89.2481 130.573 95.8526V105.258C130.573 111.923 135.869 117.342 142.535 117.342C149.2 117.342 154.557 111.923 154.557 105.258H150.24C150.24 109.893 147.17 113.036 142.535 113.036C137.899 113.036 134.891 109.905 134.891 105.258V95.8526C134.891 91.3395 137.96 88.2085 142.535 88.2085C147.109 88.2085 150.24 91.3395 150.24 95.8526H154.557C154.557 89.2481 149.2 83.8911 142.535 83.8911Z" fill="white"/>
<path d="M154.545 97.1614H136.187V101.479H154.545V97.1614Z" fill="white"/>
<path d="M46.8128 69.178H46.8005H46.7883L46.8005 69.1902L40.7097 112.095L40.0615 116.302L44.5868 116.376L50.8488 72.3212L51.3136 69.2514L46.8128 69.178Z" fill="white"/>
</g>
<defs>
<clipPath id="clip0_1515_4529">
<rect width="163.95" height="122.513" fill="white" transform="translate(0 0.828613)"/>
</clipPath>
</defs>
</svg>
